<svg width="23" height="23" viewBox="0 0 23 23" fill="none" xmlns="http://www.w3.org/2000/svg">
<path d="M2.02941 20.9706H3.73615L17.5855 7.12121L15.8788 5.41447L2.02941 19.2639V20.9706ZM0 23V18.421L17.846 0.582779C18.0505 0.396975 18.2763 0.253451 18.5235 0.152206C18.7708 0.0507353 19.0301 0 19.3014 0C19.5727 0 19.8354 0.0481428 20.0895 0.144427C20.3438 0.240711 20.569 0.393818 20.7649 0.603749L22.4172 2.27666C22.6272 2.47261 22.7768 2.6981 22.8661 2.95313C22.9554 3.20816 23 3.46319 23 3.71822C23 3.99039 22.9536 4.25004 22.8606 4.49718C22.7677 4.74454 22.6199 4.97048 22.4172 5.175L4.57903 23H0ZM16.7173 6.28272L15.8788 5.41447L17.5855 7.12121L16.7173 6.28272Z" fill="#21262D" fill-opacity="0.7"/>
</svg>
