<svg width="24" height="31" viewBox="0 0 24 31" fill="none" xmlns="http://www.w3.org/2000/svg">
<path d="M8.5125 17.2714L9.825 13.0643L6.375 10.3333H10.65L12 6.2L13.35 10.3333H17.625L14.1375 13.0643L15.45 17.2714L12 14.6512L8.5125 17.2714ZM3 31V19.5964C2.05 18.5631 1.3125 17.3821 0.7875 16.0536C0.2625 14.725 0 13.3103 0 11.8095C0 8.5127 1.1625 5.72024 3.4875 3.43214C5.8125 1.14405 8.65 0 12 0C15.35 0 18.1875 1.14405 20.5125 3.43214C22.8375 5.72024 24 8.5127 24 11.8095C24 13.3103 23.7375 14.725 23.2125 16.0536C22.6875 17.3821 21.95 18.5631 21 19.5964V31L12 28.0476L3 31ZM12 20.6667C14.5 20.6667 16.625 19.8056 18.375 18.0833C20.125 16.3611 21 14.2698 21 11.8095C21 9.34921 20.125 7.25794 18.375 5.53571C16.625 3.81349 14.5 2.95238 12 2.95238C9.5 2.95238 7.375 3.81349 5.625 5.53571C3.875 7.25794 3 9.34921 3 11.8095C3 14.2698 3.875 16.3611 5.625 18.0833C7.375 19.8056 9.5 20.6667 12 20.6667ZM6 26.6083L12 25.0952L18 26.6083V22.0321C17.125 22.5242 16.1813 22.9117 15.1688 23.1946C14.1563 23.4776 13.1 23.619 12 23.619C10.9 23.619 9.84375 23.4776 8.83125 23.1946C7.81875 22.9117 6.875 22.5242 6 22.0321V26.6083Z" fill="#21262D" fill-opacity="0.8"/>
</svg>
